# AST/ASF file generated using VICON BodyLanguage
# -----------------------------------------------
:version 1.10
:name VICON
:units
  mass 1.0
  length 0.45
  angle deg
:documentation
   .ast/.asf automatically generated from VICON data using
   VICON BodyBuilder and BodyLanguage model FoxedUp or BRILLIANT.MOD
:root
   order TX TY TZ RX RY RZ
   axis XYZ
   position 0 0 0  
   orientation 0 0 0 
:bonedata
  begin
     id 1 
     name lhipjoint
     direction 0.646657 -0.683706 0.338203 
     length 2.4948 
     axis 0 0 0  XYZ
  end
  begin
     id 2 
     name lfemur
     direction 0.34202 -0.939693 0  
     length 6.79491  
     axis 0 0 20  XYZ
    dof rx ry rz
    limits (-160.0 20.0)
           (-70.0 70.0)
           (-60.0 70.0)
  end
  begin
     id 3 
     name ltibia
     direction 0.34202 -0.939693 0   
     length 7.56807   
     axis 0 0 20   XYZ
    dof rx
    limits (-10.0 170.0)
  end
  begin
     id 4 
     name lfoot
     direction 0.0679796 -0.186772 0.980048   
     length 2.53018   
     axis -90 7.62852e-016 20   XYZ
    dof rx rz
    limits (-45.0 90.0)
           (-70.0 20.0)
  end
  begin
     id 5 
     name ltoes
     direction 1.53625e-011 -4.21881e-011 1   
     length 1.26912   
     axis -90 7.62852e-016 20   XYZ
    dof rx
    limits (-90.0 20.0)
  end
  begin
     id 6 
     name rhipjoint
     direction -0.618868 -0.704065 0.348274   
     length 2.42265  
     axis 0 0 0  XYZ 
  end
  begin
     id 7 
     name rfemur
     direction -0.34202 -0.939693 0   
     length 6.73814   
     axis 0 0 -20   XYZ
    dof rx ry rz
    limits (-160.0 20.0)
           (-70.0 70.0)
           (-70.0 60.0)
  end
  begin
     id 8 
     name rtibia
     direction -0.34202 -0.939693 0   
     length 7.66799   
     axis 0 0 -20   XYZ
    dof rx
    limits (-10.0 170.0)
 end
 begin
     id 9 
     name rfoot
     direction -0.0727352 -0.199838 0.977125   
     length 2.57224  
     axis -90 -7.62852e-016 -20   XYZ
    dof rx rz
    limits (-45.0 90.0)
           (-20.0 70.0)
  end
  begin
     id 10 
     name rtoes
     direction -1.53501e-011 -4.21858e-011 1   
     length 1.28858   
     axis -90 -7.62852e-016 -20   XYZ
    dof rx
    limits (-90.0 20.0)
  end
  begin
     id 11 
     name lowerback
     direction -0.0172471 0.995767 -0.0902851   
     length 2.20206   
     axis 0 0 0   XYZ
    dof rx ry rz
    limits (-20.0 45.0)
           (-30.0 30.0)
           (-30.0 30.0)
  end
  begin
     id 12 
     name upperback
     direction -0.000110737 0.999714 0.0239043   
     length 2.19523   
     axis 0 0 0   XYZ
    dof rx ry rz
    limits (-20.0 45.0)
           (-30.0 30.0)
           (-30.0 30.0)
  end
  begin
     id 13 
     name thorax
     direction 0.00704869 0.997783 0.0661741   
     length 2.21977   
     axis 0 0 0   XYZ
    dof rx ry rz
    limits (-20.0 45.0)
           (-30.0 30.0)
           (-30.0 30.0)
  end
  begin
     id 14 
     name lowerneck
     direction -0.00407501 0.995527 0.0943846   
     length 1.83142   
     axis 0 0 0   XYZ
    dof rx ry rz
    limits (-20.0 45.0)
           (-30.0 30.0)
           (-30.0 30.0)
  end
  begin
     id 15 
     name upperneck
     direction 0.0640586 0.986486 -0.150807   
     length 1.84616   
     axis 0 0 0   XYZ
    dof rx ry rz
    limits (-20.0 45.0)
           (-30.0 30.0)
           (-30.0 30.0)
  end
  begin
     id 16
     name head
     direction 0.0188017 0.99791 -0.0618239  
     length 1.85932  
     axis 0 0 0   XYZ
    dof rx ry rz
    limits (-20.0 45.0)
           (-30.0 30.0)
           (-30.0 30.0)
  end
  begin
     id 17 
     name lclavicle
     direction 0.976074 0.206905 0.066852  
     length 3.81043  
     axis 0 0 0   XYZ
    dof ry rz
    limits (-20.0 10.0)
           (0.0 20.0)
  end
  begin
     id 18 
     name lhumerus
     direction 1 -4.48971e-011 1.86916e-027   
     length 5.37587   
     axis 180 -30 -90   XYZ
    dof rx ry rz
    limits (-60.0 90.0)
           (-90.0 90.0)
           (-90.0 90.0)
  end
  begin
     id 19
     name lradius
     direction 1 -4.48968e-011 1.69187e-027   
     length 3.35977   
     axis 180 -30 -90   XYZ
    dof rx
    limits (-10.0 170.0)
  end
  begin
     id 20
     name lwrist
     direction 1 -4.48968e-011 5.8978e-027   
     length 1.67988   
     axis -3.27506e-015 90 90   XYZ
    dof ry
    limits (-180.0 0.0)
 end
  begin
     id 21 
     name lhand
     direction 1 -4.49028e-011 1.18071e-026   
     length 0.561859   
     axis -7.52654e-015 90 90   XYZ
    dof rx rz
    limits (-90.0 90.0)
           (-45.0 45.0)
  end
  begin
     id 22 
     name lfingers
     direction 1 -4.48927e-011 2.35758e-026   
     length 0.452985   
     axis -1.50534e-014 90 90   XYZ
    dof rx
    limits (0.0 90.0)
  end
  begin
     id 23
     name lthumb
     direction 0.707107 -6.34898e-011 0.707107   
     length 0.650399   
     axis -90 45 5.69224e-014   XYZ
    dof rx rz
    limits (-45.0 45.0)
           (-45.0 45.0)
  end
  begin
     id 24 
     name rclavicle
     direction -0.988403 0.151789 0.00439714   
     length 3.6942  
     axis 0 0 0   XYZ 
    dof ry rz
    limits (-10.0 20.0)
           (-20.0 0.0)
  end
  begin
     id 25 
     name rhumerus
     direction -1 -4.48978e-011 1.62495e-027  
     length 5.22819   
     axis 180 30 90   XYZ
    dof rx ry rz
    limits (-90.0 60.0)
           (-90.0 90.0)
           (-90.0 90.0)
  end
  begin
     id 26 
     name rradius
     direction -1 -4.48961e-011 3.47796e-027   
     length 3.40764   
     axis 180 30 90   XYZ
    dof rx
    limits (-10.0 170.0)
  end
  begin
     id 27 
     name rwrist
     direction -1 -4.48949e-011 5.89602e-027   
     length 1.70382   
     axis -3.27506e-015 -90 -90   XYZ
    dof ry
    limits (-180.0 0.0)
  end
  begin
     id 28
     name rhand
     direction -1 -4.48977e-011 1.17973e-026   
     length 0.583255   
     axis -7.52654e-015 -90 -90   XYZ
    dof rx rz
    limits (-90.0 90.0)
           (-45.0 45.0)
  end
  begin
     id 29
     name rfingers
     direction -1 -4.49099e-011 2.36408e-026   
     length 0.470235   
     axis -1.50534e-014 -90 -90   XYZ
    dof rx
    limits (0.0 90.0)
  end
  begin
     id 30
     name rthumb
     direction -0.707107 -6.35011e-011 0.707107   
     length 0.675167   
     axis -90 -45 -5.69224e-014   XYZ
    dof rx rz
    limits (-45.0 45.0)
           (-45.0 45.0)
  end
:hierarchy
  begin
    root lhipjoint rhipjoint lowerback
    lhipjoint lfemur
    lfemur ltibia
    ltibia lfoot
    lfoot ltoes
    rhipjoint rfemur
    rfemur rtibia
    rtibia rfoot
    rfoot rtoes
    lowerback upperback
    upperback thorax
    thorax lowerneck lclavicle rclavicle
    lowerneck upperneck
    upperneck head
    lclavicle lhumerus
    lhumerus lradius
    lradius lwrist
    lwrist lhand lthumb
    lhand lfingers
    rclavicle rhumerus
    rhumerus rradius
    rradius rwrist
    rwrist rhand rthumb
    rhand rfingers
  end

#!OML:ASF G:\JayActor3\Patient Classification 1\Patient 1\Session 2\male.ASF
:FULLY-SPECIFIED
:DEGREES
490
root 37.5535 13.9394 -5.44442 200.085 -65.216 -191.396
lowerback 37.9547 0.772022 1.206
upperback 18.0433 -2.09956 -0.264277
thorax 1.14725 -2.22578 -0.277042
lowerneck -0.860425 7.00888 3.98569
upperneck -24.7461 7.23962 -10.0008
head -6.80456 3.4998 -4.25071
rclavicle -3.97569e-014 -7.46436e-014
rhumerus 9.82824 13.6231 -65.8127
rradius 79.099
rwrist -0.376577
rhand -29.8575 2.38384
rfingers 7.12502
rthumb -3.17988 -27.5722
lclavicle -3.97569e-014 -7.46436e-014
lhumerus 30.2488 -5.32807 64.7476
lradius 101.352
lwrist 9.8541
lhand -14.9835 14.3034
lfingers 7.12502
lthumb 11.1806 43.9855
rfemur -54.8304 -2.5339 27.766
rtibia 85.1294
rfoot -44.1704 -19.2729
rtoes 15.7523
lfemur -76.3038 15.2191 -23.3876
ltibia 56.5351
lfoot 16.8307 8.16556
ltoes -9.31993
491
root 37.5008 13.9458 -5.45072 199.785 -65.1523 -191.216
lowerback 37.9496 0.808681 1.1775
upperback 18.0599 -2.07219 -0.254669
thorax 1.1681 -2.21877 -0.261659
lowerneck -0.731773 7.007 3.99493
upperneck -24.7811 7.2405 -10.012
head -6.83721 3.50436 -4.2631
rclavicle 2.50469e-014 3.58806e-014
rhumerus 9.91806 13.728 -65.8402
rradius 79.1423
rwrist -0.290323
rhand -29.8683 2.38141
rfingers 7.12502
rthumb -3.19026 -27.5745
lclavicle 2.50469e-014 3.58806e-014
lhumerus 29.9801 -5.25129 64.7043
lradius 101.333
lwrist 9.85748
lhand -15.0096 14.3134
lfingers 7.12502
lthumb 11.1555 43.9968
rfemur -54.3838 -2.44003 27.7202
rtibia 85.0624
rfoot -44.3063 -19.324
rtoes 15.5359
lfemur -75.7704 15.357 -23.4251
ltibia 54.3204
lfoot 19.1237 8.75142
ltoes -6.46201
492
root 37.4468 13.9537 -5.45687 199.467 -65.0808 -191.005
lowerback 37.9252 0.85044 1.14603
upperback 18.0742 -2.03807 -0.245602
thorax 1.19236 -2.20809 -0.24778
lowerneck -0.597333 7.00303 4.00847
upperneck -24.811 7.24243 -10.0094
head -6.86969 3.50825 -4.2718
rclavicle 7.63333e-014 8.94531e-015
rhumerus 10.0037 13.8367 -65.8706
rradius 79.1735
rwrist -0.180098
rhand -29.8668 2.37137
rfingers 7.12502
rthumb -3.18882 -27.5845
lclavicle 7.63333e-014 8.94531e-015
lhumerus 29.7037 -5.18768 64.6545
lradius 101.314
lwrist 9.85653
lhand -15.0367 14.3234
lfingers 7.12502
lthumb 11.1293 44.0083
rfemur -53.9367 -2.34863 27.6837
rtibia 84.9801
rfoot -44.4223 -19.3574
rtoes 15.3259
lfemur -75.2316 15.5072 -23.4512
ltibia 52.1357
lfoot 21.4959 9.31742
ltoes -3.67866
493
root 37.3915 13.963 -5.4626 199.132 -65.0007 -190.763
lowerback 37.8833 0.894335 1.11401
upperback 18.0856 -2.00007 -0.237184
thorax 1.21873 -2.19499 -0.235787
lowerneck -0.466589 6.99788 4.0134
upperneck -24.8294 7.24704 -9.98678
head -6.89913 3.51273 -4.27208
rclavicle 2.3059e-014 3.4191e-014
rhumerus 10.09 13.952 -65.9037
rradius 79.1904
rwrist -0.0465015
rhand -29.8469 2.35118
rfingers 7.12502
rthumb -3.16959 -27.605
lclavicle 2.3059e-014 3.4191e-014
lhumerus 29.4223 -5.12762 64.5971
lradius 101.291
lwrist 9.85327
lhand -15.0621 14.3296
lfingers 7.12502
lthumb 11.1048 44.0158
rfemur -53.4918 -2.26614 27.6577
rtibia 84.8823
rfoot -44.5223 -19.3643
rtoes 15.1288
lfemur -74.6866 15.6657 -23.4612
ltibia 49.9851
lfoot 23.8374 9.87182
ltoes -1.00614
494
root 37.3349 13.9741 -5.46769 198.787 -64.9076 -190.5
lowerback 37.8193 0.940944 1.08694
upperback 18.0984 -1.95662 -0.235104
thorax 1.2532 -2.17808 -0.235254
lowerneck -0.345982 6.99048 4.01681
upperneck -24.8335 7.25221 -9.94882
head -6.92296 3.51638 -4.26612
rclavicle -5.96354e-015 -3.57812e-015
rhumerus 10.168 14.0597 -65.9443
rradius 79.2043
rwrist 0.111179
rhand -29.8023 2.31444
rfingers 7.12502
rthumb -3.12654 -27.6424
lclavicle -5.96354e-015 -3.57812e-015
lhumerus 29.1432 -5.08024 64.5276
lradius 101.266
lwrist 9.84039
lhand -15.0904 14.3345
lfingers 7.12502
lthumb 11.0776 44.0221
rfemur -53.0472 -2.19457 27.6355
rtibia 84.7667
rfoot -44.6032 -19.3467
rtoes 14.9592
lfemur -74.1288 15.8273 -23.4495
ltibia 47.8715
lfoot 26.0233 10.4636
ltoes 1.57524
495
root 37.2768 13.9868 -5.47196 198.428 -64.7996 -190.213
lowerback 37.7388 0.98849 1.07063
upperback 18.1127 -1.90854 -0.240922
thorax 1.29415 -2.15741 -0.250397
lowerneck -0.238896 6.98208 4.02168
upperneck -24.8227 7.25768 -9.90579
head -6.93979 3.51957 -4.25755
rclavicle 2.22639e-014 -4.72114e-014
rhumerus 10.2413 14.1589 -65.9937
rradius 79.2166
rwrist 0.285896
rhand -29.7276 2.27467
rfingers 7.12502
rthumb -3.0544 -27.6832
lclavicle 2.22639e-014 -4.72114e-014
lhumerus 28.8677 -5.04322 64.4419
lradius 101.238
lwrist 9.81227
lhand -15.1204 14.341
lfingers 7.12502
lthumb 11.0486 44.0302
rfemur -52.5999 -2.13402 27.6179
rtibia 84.6324
rfoot -44.665 -19.3089
rtoes 14.7915
lfemur -73.5543 15.9938 -23.4192
ltibia 45.8068
lfoot 27.988 11.0714
ltoes 3.9282
496
root 37.2173 14.0013 -5.47523 198.069 -64.6747 -189.918
lowerback 37.6414 1.03682 1.06362
upperback 18.1308 -1.85708 -0.25704
thorax 1.34429 -2.13368 -0.282675
lowerneck -0.14971 6.97308 4.03194
upperneck -24.7982 7.26181 -9.86768
head -6.94858 3.52181 -4.25003
rclavicle -2.18663e-015 -1.72943e-014
rhumerus 10.3028 14.2474 -66.0514
rradius 79.241
rwrist 0.4668
rhand -29.6235 2.24314
rfingers 7.12502
rthumb -2.95386 -27.7162
lclavicle -2.18663e-015 -1.72943e-014
lhumerus 28.595 -5.01585 64.3382
lradius 101.212
lwrist 9.76769
lhand -15.1425 14.3392
lfingers 7.12502
lthumb 11.0273 44.0296
rfemur -52.1492 -2.09227 27.5967
rtibia 84.4775
rfoot -44.7096 -19.2464
rtoes 14.6394
lfemur -72.9576 16.1592 -23.3698
ltibia 43.8035
lfoot 29.6853 11.7382
ltoes 6.13015
497
root 37.1564 14.0178 -5.47742 197.714 -64.5323 -189.621
lowerback 37.5327 1.0841 1.06291
upperback 18.1518 -1.80562 -0.282142
thorax 1.40079 -2.10894 -0.32792
lowerneck -0.0732816 6.96595 4.0431
upperneck -24.7657 7.26558 -9.84424
head -6.95171 3.52485 -4.2465
rclavicle 1.39149e-015 2.75317e-014
rhumerus 10.3607 14.3362 -66.11
rradius 79.2777
rwrist 0.642749
rhand -29.4976 2.21621
rfingers 7.12502
rthumb -2.83231 -27.7447
lclavicle 1.39149e-015 2.75317e-014
lhumerus 28.3207 -4.98745 64.2129
lradius 101.188
lwrist 9.70797
lhand -15.1595 14.3287
lfingers 7.12502
lthumb 11.0109 44.0199
rfemur -51.689 -2.06638 27.5669
rtibia 84.3014
rfoot -44.7419 -19.153
rtoes 14.5206
lfemur -72.338 16.3191 -23.2973
ltibia 41.8804
lfoot 31.1262 12.4656
ltoes 8.18486
498
root 37.0938 14.0362 -5.47846 197.368 -64.374 -189.33
lowerback 37.4104 1.1304 1.06853
upperback 18.1768 -1.75417 -0.315907
thorax 1.46597 -2.08325 -0.385896
lowerneck -0.0114115 6.96033 4.06281
upperneck -24.7261 7.26704 -9.84396
head -6.94852 3.52767 -4.25084
rclavicle 1.88845e-014 8.05078e-015
rhumerus 10.4092 14.4271 -66.1668
rradius 79.3429
rwrist 0.798448
rhand -29.3675 2.18372
rfingers 7.12502
rthumb -2.70666 -27.7788
lclavicle 1.88845e-014 8.05078e-015
lhumerus 28.0422 -4.96267 64.0642
lradius 101.175
lwrist 9.63791
lhand -15.1819 14.3179
lfingers 7.12502
lthumb 10.9893 44.0102
rfemur -51.221 -2.05329 27.5256
rtibia 84.1043
rfoot -44.7599 -19.0456
rtoes 14.3943
lfemur -71.7026 16.4699 -23.1989
ltibia 40.0561
lfoot 32.3527 13.2357
ltoes 10.1012
499
root 37.0299 14.0564 -5.47848 197.028 -64.2032 -189.035
lowerback 37.275 1.1733 1.07617
upperback 18.2026 -1.70613 -0.354381
thorax 1.53609 -2.05861 -0.449035
lowerneck 0.0442184 6.9586 4.0815
upperneck -24.6866 7.26925 -9.86435
head -6.94319 3.53247 -4.26146
rclavicle -5.36719e-015 2.68359e-015
rhumerus 10.4599 14.5377 -66.213
rradius 79.4286
rwrist 0.920779
rhand -29.2495 2.16115
rfingers 7.12502
rthumb -2.5927 -27.8028
lclavicle -5.36719e-015 2.68359e-015
lhumerus 27.753 -4.92747 63.8884
lradius 101.171
lwrist 9.57227
lhand -15.2062 14.2948
lfingers 7.12502
lthumb 10.9658 43.9884
rfemur -50.7489 -2.05617 27.4775
rtibia 83.8862
rfoot -44.7582 -18.9254
rtoes 14.2497
lfemur -71.0655 16.6063 -23.0623
ltibia 38.3529
lfoot 33.4287 13.9982
ltoes 11.8715
500
root 36.9646 14.0783 -5.47753 196.695 -64.0235 -188.739
lowerback 37.1276 1.21299 1.08382
upperback 18.2271 -1.66126 -0.395112
thorax 1.60876 -2.03506 -0.513686
lowerneck 0.0999232 6.96021 4.09892
upperneck -24.6504 7.27198 -9.90326
head -6.93797 3.53912 -4.27804
rclavicle -1.53064e-014 1.81888e-014
rhumerus 10.5123 14.671 -66.2457
rradius 79.5379
rwrist 1.00734
rhand -29.159 2.13976
rfingers 7.12502
rthumb -2.50527 -27.8253
lclavicle -1.53064e-014 1.81888e-014
lhumerus 27.4491 -4.88584 63.6888
lradius 101.179
lwrist 9.5171
lhand -15.2392 14.2724
lfingers 7.12502
lthumb 10.934 43.9677
rfemur -50.275 -2.06763 27.4227
rtibia 83.6488
rfoot -44.7319 -18.809
rtoes 14.0597
lfemur -70.4403 16.7253 -22.881
ltibia 36.794
lfoot 34.411 14.6926
ltoes 13.4564
501
root 36.898 14.1017 -5.4758 196.36 -63.8329 -188.43
lowerback 36.9711 1.24319 1.06247
upperback 18.2465 -1.63604 -0.424173
thorax 1.67916 -2.02411 -0.545013
lowerneck 0.168119 6.98005 4.05632
upperneck -24.6268 7.2949 -9.94603
head -6.94025 3.56136 -4.28789
rclavicle -2.32578e-014 2.52457e-014
rhumerus 10.6095 14.8934 -66.2356
rradius 79.6553
rwrist 1.04891
rhand -29.1042 2.12757
rfingers 7.12502
rthumb -2.45237 -27.8381
lclavicle -2.32578e-014 2.52457e-014
lhumerus 27.0931 -4.77871 63.4827
lradius 101.203
lwrist 9.47913
lhand -15.2745 14.2536
lfingers 7.12502
lthumb 10.9 43.9507
rfemur -49.798 -2.07691 27.3647
rtibia 83.3927
rfoot -44.6837 -18.6963
rtoes 13.8208
lfemur -69.8429 16.8371 -22.6574
ltibia 35.4081
lfoot 35.3508 15.1583
ltoes 14.6725
502
root 36.83 14.126 -5.47334 196.024 -63.6366 -188.109
lowerback 36.8069 1.26508 1.01244
upperback 18.2584 -1.62787 -0.439286
thorax 1.74432 -2.02437 -0.541513
lowerneck 0.252671 7.0156 3.96064
upperneck -24.6153 7.33598 -9.98809
head -6.95061 3.59733 -4.29078
rclavicle 2.38542e-014 1.18277e-014
rhumerus 10.7435 15.1986 -66.1808
rradius 79.7857
rwrist 1.05509
rhand -29.0956 2.11603
rfingers 7.12502
rthumb -2.444 -27.8497
lclavicle 2.38542e-014 1.18277e-014
lhumerus 26.6863 -4.61547 63.2735
lradius 101.242
lwrist 9.46287
lhand -15.3124 14.2399
lfingers 7.12502
lthumb 10.8634 43.9389
rfemur -49.3218 -2.07934 27.3054
rtibia 83.1209
rfoot -44.6153 -18.5928
rtoes 13.5382
lfemur -69.2932 16.942 -22.3948
ltibia 34.2205
lfoot 36.254 15.4094
ltoes 15.5935
503
root 36.7605 14.1514 -5.47024 195.691 -63.4339 -187.778
lowerback 36.6382 1.28102 0.935485
upperback 18.263 -1.6334 -0.442502
thorax 1.80345 -2.03396 -0.507227
lowerneck 0.347595 7.06537 3.81914
upperneck -24.6143 7.39422 -10.0244
head -6.9676 3.64528 -4.28594
rclavicle -2.32578e-014 1.63997e-015
rhumerus 10.9119 15.5719 -66.0865
rradius 79.9266
rwrist 1.04609
rhand -29.1274 2.1092
rfingers 7.12502
rthumb -2.47476 -27.8562
lclavicle -2.32578e-014 1.63997e-015
lhumerus 26.2373 -4.40218 63.0612
lradius 101.295
lwrist 9.46807
lhand -15.3461 14.2433
lfingers 7.12502
lthumb 10.8309 43.944
rfemur -48.846 -2.07101 27.243
rtibia 82.835
rfoot -44.5267 -18.4996
rtoes 13.2133
lfemur -68.8065 17.0545 -22.1238
ltibia 33.2559
lfoot 37.131 15.391
ltoes 16.182
